<svg xmlns="http://www.w3.org/2000/svg" viewBox="0 0 226.44 235.99"><defs><linearGradient id="linear-gradient" y1="117.99" x2="201.71" y2="117.99" gradientUnits="userSpaceOnUse"><stop offset="0" stop-color="#efa6c2"/><stop offset="1" stop-color="#96cdbd"/></linearGradient><style>.cls-3,.cls-4{fill:#a8dedb;stroke:#1f2687;stroke-miterlimit:10;stroke-width:6px}.cls-4{fill:none;stroke:#212683}.cls-5{fill:#1f2687}</style></defs><g style="isolation:isolate"><g id="Layer_2" data-name="Layer 2"><g id="Layer_1-2" data-name="Layer 1"><path d="M168.13 82A50.06 50.06 0 1 0 79.8 44.94a70.78 70.78 0 0 0-28.19 138.34c0 .88-.07 1.76-.07 2.65a50.06 50.06 0 1 0 99.67-6.6h.45A50.06 50.06 0 0 0 168.13 82z" style="opacity:.4;mix-blend-mode:multiply;fill:url(#linear-gradient)"/><path class="cls-3" d="M99 20.62h46.8a7.06 7.06 0 0 1 7.06 7.06v40.48H92V27.67a7.06 7.06 0 0 1 7-7.05zM77.48 68.16h89.89a7.06 7.06 0 0 1 7.06 7.06v40.49h-104V75.22a7.06 7.06 0 0 1 7.05-7.06z"/><path class="cls-3" d="M41.82 115.71H203a7.06 7.06 0 0 1 7.06 7.06v40.49H34.77v-40.49a7.06 7.06 0 0 1 7.05-7.06z"/><path class="cls-4" d="M92 33.36c10.15 0 10.15 2 20.3 2s10.15-2 20.31-2 10.15 2 20.31 2M174.43 85.4c-10.4 0-10.4-4-20.8-4s-10.4 4-20.8 4-10.4-4-20.8-4-10.4 4-20.8 4-10.4-4-20.8-4M34.77 131.54c17.53 0 17.53 4 35.06 4s17.53-4 35.07-4 17.53 4 35.06 4 17.53-4 35.07-4 17.53 4 35.07 4"/><path class="cls-5" d="M203.77 49.2h-2.23V47a2 2 0 1 0-4 0v2.2h-2.23a2 2 0 0 0 0 4h2.23v2.23a2 2 0 0 0 4 0v-2.19h2.23a2 2 0 1 0 0-4zM50.72 33.44h-2.8v-2.8a2.55 2.55 0 1 0-5.1 0v2.8H40a2.55 2.55 0 0 0 0 5.1h2.8v2.8a2.55 2.55 0 0 0 5.1 0v-2.8h2.8a2.55 2.55 0 1 0 0-5.1zM179.79 210.87H177v-2.8a2.55 2.55 0 1 0-5.1 0v2.8h-2.8a2.55 2.55 0 0 0 0 5.1h2.8v2.8a2.55 2.55 0 0 0 5.1 0V216h2.8a2.55 2.55 0 1 0 0-5.1z"/><path d="M191.27 186.27h13.1a19.07 19.07 0 0 0 19.07-19.07v-3.47h-202v3.47a19.07 19.07 0 0 0 19.06 19.07h122.2" style="fill:#cec09f;stroke:#212683;stroke-miterlimit:10;stroke-width:6px"/><path d="M111.77 186.27h21.33v33.29a2.29 2.29 0 0 1-2.29 2.29h-16.76a2.29 2.29 0 0 1-2.29-2.29v-33.29h.01z" style="fill:#9dcc96;stroke:#212683;stroke-miterlimit:10;stroke-width:6px"/><circle cx="177.37" cy="186.27" r="3.43" style="fill:#212683"/><path class="cls-4" d="M34.77 150.1h71M111.77 150.1h5.5"/></g></g></g></svg>