<svg xmlns="http://www.w3.org/2000/svg" xml:space="preserve" width="655.359" height="655.359" style="shape-rendering:geometricPrecision;text-rendering:geometricPrecision;image-rendering:optimizeQuality;fill-rule:evenodd;clip-rule:evenodd" viewBox="0 0 6.827 6.827"><defs><style>.fil0{fill:#42a5f5}.fil1{fill:#fffffe;fill-rule:nonzero}</style></defs><g id="Layer_x0020_1"><g id="_464578856"><path id="_464582912" class="fil0" d="M0 0h6.827v6.827H0z"/><path id="_464578688" class="fil0" d="M.853.853h5.12v5.12H.853z"/></g><g id="_464578016"><path id="_464578832" class="fil1" d="M1.158 3.855h4.51a.41.41 0 0 1 .412.412v1.508H.747V4.267a.41.41 0 0 1 .411-.412zm4.51.214h-4.51a.197.197 0 0 0-.198.198v1.295h4.907V4.267a.197.197 0 0 0-.198-.198z"/><path id="_464581376" class="fil1" d="M1.838 2.149h3.15a.41.41 0 0 1 .412.411v1.509H1.426V2.56a.41.41 0 0 1 .412-.411zm3.15.213h-3.15a.197.197 0 0 0-.198.198v1.295h3.547V2.56a.197.197 0 0 0-.198-.198z"/><path id="_464579600" class="fil1" d="M1.64 2.628c0 .072.036.139.086.191.06.061.134.1.19.1.105 0 .127-.018.164-.048l.018-.015.067-.054.067.054a.29.29 0 0 0 .363 0l.067-.054.066.054a.29.29 0 0 0 .364 0l.066-.054.067.054a.29.29 0 0 0 .363 0l.067-.054.067.054a.29.29 0 0 0 .363 0l.067-.054.066.054a.29.29 0 0 0 .363 0l.067-.054.067.054a.29.29 0 0 0 .387-.022.29.29 0 0 0 .085-.206H5.4a.502.502 0 0 1-.752.439.505.505 0 0 1-.496 0 .505.505 0 0 1-.497 0 .504.504 0 0 1-.497 0 .505.505 0 0 1-.496 0 .504.504 0 0 1-.491.003c-.055.04-.112.062-.254.062a.516.516 0 0 1-.344-.165.492.492 0 0 1-.147-.339h.214z"/><path id="_464577992" class="fil1" d="M.966 4.272a.51.51 0 0 0 .168.221c.076.06.161.095.23.095.156 0 .19-.028.247-.075.012-.01.024-.02.026-.02l.066-.054.067.053a.436.436 0 0 0 .547 0l.067-.053.066.053a.436.436 0 0 0 .547 0l.067-.053.067.053a.436.436 0 0 0 .547 0l.066-.053.067.053a.436.436 0 0 0 .547 0l.067-.053.066.053a.436.436 0 0 0 .547 0l.067-.053.067.053a.436.436 0 0 0 .698-.236l.207.051a.651.651 0 0 1-.972.398.65.65 0 0 1-.68 0 .65.65 0 0 1-.68 0 .65.65 0 0 1-.681 0 .65.65 0 0 1-.68 0 .65.65 0 0 1-.676.003c-.076.06-.145.093-.345.093a.617.617 0 0 1-.36-.14.727.727 0 0 1-.237-.316l.2-.073z"/><path id="_464580776" class="fil1" d="M3.94 1.5a.235.235 0 0 0-.436-.123l-.09.148-.092-.148a.238.238 0 0 0-.2-.112.235.235 0 0 0-.155.413l.006.004.44.44.44-.44.006-.004a.238.238 0 0 0 .08-.178zm.082-.317a.447.447 0 0 1-.017.65l-.485.485a.15.15 0 0 1-.213 0l-.485-.485a.45.45 0 0 1 .3-.782.445.445 0 0 1 .291.108.451.451 0 0 1 .292-.108c.123 0 .236.05.317.132z"/></g></g></svg>