<svg xmlns="http://www.w3.org/2000/svg" xml:space="preserve" width="655.359" height="655.359" style="shape-rendering:geometricPrecision;text-rendering:geometricPrecision;image-rendering:optimizeQuality;fill-rule:evenodd;clip-rule:evenodd" viewBox="0 0 6.827 6.827"><defs><style>.fil0{fill:#ff9800}.fil1{fill:#fffffe;fill-rule:nonzero}</style></defs><g id="Layer_x0020_1"><g id="_542546112"><path id="_542546664" class="fil0" d="M0 0h6.827v6.827H0z"/><path id="_542550024" class="fil0" d="M.853.853h5.12v5.12H.853z"/></g><g id="_542549976"><path id="_542543208" class="fil1" d="M1.158 3.893h4.51a.41.41 0 0 1 .412.412v1.508H.747V4.305a.41.41 0 0 1 .411-.412zm4.51.214h-4.51a.197.197 0 0 0-.198.198V5.6h4.907V4.305a.197.197 0 0 0-.198-.198z"/><path id="_542543400" class="fil1" d="M1.838 2.415h3.15c.11 0 .212.04.286.104a.352.352 0 0 1 .126.267v1.321H1.426V2.786c0-.105.049-.2.127-.267a.436.436 0 0 1 .285-.104zm3.15.214h-3.15c-.058 0-.11.02-.146.05a.142.142 0 0 0-.052.107v1.107h3.547V2.786c0-.04-.02-.078-.052-.106a.222.222 0 0 0-.146-.051z"/><path id="_542548896" class="fil1" d="M1.64 2.895c0 .072.036.139.086.19.06.062.134.1.19.1.105 0 .127-.017.164-.047l.018-.016.067-.053.067.053a.29.29 0 0 0 .363 0l.067-.053.066.053a.29.29 0 0 0 .364 0l.066-.053.067.053a.29.29 0 0 0 .363 0l.067-.053.067.053a.29.29 0 0 0 .363 0l.067-.053.066.053a.29.29 0 0 0 .363 0l.067-.053.067.053a.29.29 0 0 0 .387-.021.29.29 0 0 0 .085-.206H5.4a.502.502 0 0 1-.752.438.505.505 0 0 1-.496 0 .505.505 0 0 1-.497 0 .504.504 0 0 1-.497 0 .505.505 0 0 1-.496 0 .504.504 0 0 1-.491.004c-.055.04-.112.062-.254.062a.516.516 0 0 1-.344-.166.492.492 0 0 1-.147-.338h.214z"/><path id="_542547888" class="fil1" d="M.966 4.31a.51.51 0 0 0 .168.221c.076.06.161.095.23.095.156 0 .19-.028.247-.075.012-.01.024-.02.026-.02l.066-.054.067.053a.436.436 0 0 0 .547 0l.067-.053.066.053a.436.436 0 0 0 .547 0l.067-.053.067.053a.436.436 0 0 0 .547 0l.066-.053.067.053a.436.436 0 0 0 .547 0l.067-.053.066.053a.436.436 0 0 0 .547 0l.067-.053.067.053a.436.436 0 0 0 .698-.236l.207.051a.651.651 0 0 1-.972.398.65.65 0 0 1-.68 0 .65.65 0 0 1-.68 0 .65.65 0 0 1-.681 0 .65.65 0 0 1-.68 0 .65.65 0 0 1-.676.003c-.076.06-.145.093-.345.093a.617.617 0 0 1-.36-.14.727.727 0 0 1-.237-.316l.2-.073z"/><path id="_542547864" class="fil1" d="M2.151 1.013h2.524a.355.355 0 0 1 .35.354l.001 1.14v.106H1.801V1.367a.355.355 0 0 1 .35-.354zm2.524.214H2.151a.135.135 0 0 0-.096.04.142.142 0 0 0-.041.1V2.4h2.799V1.368a.142.142 0 0 0-.041-.1.135.135 0 0 0-.097-.041z"/><path id="_542546328" class="fil1" d="M2.014 1.47c0 .069.029.132.069.18.043.053.094.086.132.086.07 0 .085-.014.11-.038l.016-.014.073-.069.072.069c.019.017.04.03.061.04a.17.17 0 0 0 .13 0 .202.202 0 0 0 .061-.04l.073-.069.073.069c.019.017.04.03.061.04a.17.17 0 0 0 .13 0 .202.202 0 0 0 .061-.04l.073-.069.073.069c.018.017.04.03.061.04a.17.17 0 0 0 .13 0 .202.202 0 0 0 .06-.04l.074-.069.073.069c.018.017.039.03.06.04a.17.17 0 0 0 .13 0 .202.202 0 0 0 .062-.04l.073-.069.073.069c.018.017.039.03.06.04a.17.17 0 0 0 .13 0 .202.202 0 0 0 .061-.04l.073-.069.073.069c.019.017.04.03.061.04a.17.17 0 0 0 .065.012.191.191 0 0 0 .144-.072.299.299 0 0 0 .068-.194h.213a.513.513 0 0 1-.119.333.401.401 0 0 1-.306.146.382.382 0 0 1-.199-.055.403.403 0 0 1-.199.055.382.382 0 0 1-.198-.055.402.402 0 0 1-.2.055.382.382 0 0 1-.198-.055.402.402 0 0 1-.199.055.382.382 0 0 1-.199-.055.402.402 0 0 1-.199.055.382.382 0 0 1-.199-.055.402.402 0 0 1-.199.055.382.382 0 0 1-.191-.051c-.044.033-.095.051-.206.051-.098 0-.214-.063-.296-.163A.5.5 0 0 1 1.8 1.47h.213z"/></g></g></svg>