<svg xmlns="http://www.w3.org/2000/svg" viewBox="0 0 512 512" style="enable-background:new 0 0 512 512" xml:space="preserve"><style>.st2{fill:#efc971}.st4{fill:#7f78bb}.st6{fill:#eaa9b9}.st16{fill:#7fbdbf}.st17{fill:#d3f8f5}.st31{fill:#e06e8a}.st32{fill:#b45b77}.st33{fill:#eec8d7}.st81{fill:#d6b269}.st90{fill:#bc6383}.st102{fill:#d59eae}.st103{fill:#bc6381}.st105{fill:#8481b6}.st106{fill:#918bc6}.st107{fill:#76afaf}.st108{fill:#bedbd8}.st109{fill:#eab9c9}</style><g id="BULINE"><circle id="XMLID_1117_" cx="256" cy="256" r="256" style="fill:#77d284"/></g><g id="Icons"><g id="XMLID_1011_"><path id="XMLID_1107_" class="st6" d="M157.4 126.6c.9 1.1 14.4 16.4 43.4 32H369v23.2H261.8c28.9 7.3 64.5 11.7 107.3 10v-65.2H157.4z"/><path id="XMLID_1106_" class="st16" d="M369 181.8v-23.2H200.7c15.7 8.4 35.8 16.9 61.1 23.2H369z"/><path id="XMLID_1105_" class="st102" d="M157.4 126.6h-16.6v32h59.9c-29-15.6-42.4-30.9-43.3-32z"/><path id="XMLID_1104_" class="st102" d="M261.8 181.8h-121v22.1h228.3v-12.1c-42.8 1.7-78.4-2.7-107.3-10z"/><path id="XMLID_1103_" class="st103" d="M369.1 126.6v6.9c0 5.3-2.1 10-5.6 13.5-3.4 3.4-8.2 5.6-13.5 5.6-10.5 0-19-8.5-19-19 0 10.5-8.5 19-19 19s-19-8.5-19-19c0 5.3-2.1 10-5.6 13.5-3.4 3.4-8.2 5.6-13.4 5.6-10.5 0-19-8.5-19-19 0 5.3-2.1 10-5.6 13.5-3.4 3.4-8.2 5.6-13.5 5.6-10.5 0-19-8.5-19-19 0 10.5-8.5 19-19 19s-19-8.5-19-19c0 5.3-2.1 10-5.6 13.5-3.4 3.4-8.2 5.6-13.4 5.6-10.5 0-19-8.5-19-19V127c0-.8.1-1.5.2-2.2 1.1-6.4 6.6-11.3 13.3-11.3h201.3c3.7 0 7.1 1.5 9.6 4 2 2 3.3 4.5 3.8 7.3v1.8z"/><path id="XMLID_1102_" class="st31" d="M369 124.4c-.6 4.2-2.5 8-5.4 10.8-3.4 3.4-8.2 5.6-13.5 5.6-10.5 0-19-8.5-19-19 0 10.5-8.5 19-19 19s-19-8.5-19-19c0 5.3-2.1 10-5.6 13.5-3.4 3.4-8.2 5.6-13.4 5.6-10.5 0-19-8.5-19-19 0 5.3-2.1 10-5.6 13.5-3.4 3.4-8.2 5.6-13.5 5.6-10.5 0-19-8.5-19-19 0 10.5-8.5 19-19 19s-19-8.5-19-19c0 5.3-2.1 10-5.6 13.5-3.4 3.4-8.2 5.6-13.4 5.6-9.6 0-17.6-7.1-18.8-16.4 1.1-6.4 6.6-11.3 13.3-11.3h201.3c3.7 0 7.1 1.5 9.6 4 1.7 1.6 3.1 4.1 3.6 7z"/><path id="XMLID_1101_" class="st6" d="M104.3 221.9c1.4 1.7 22.3 25.6 67.5 49.8h261.9v36.2H266.8c45.1 11.3 100.4 18.2 167.1 15.5V221.9H104.3z"/><path id="XMLID_1100_" class="st16" d="M433.7 307.9v-36.2H171.8c24.4 13.1 55.8 26.3 95.1 36.2h166.8z"/><path id="XMLID_1099_" class="st102" d="M104.3 221.9H78.4v49.8h93.3c-45.1-24.2-66-48.1-67.4-49.8z"/><path id="XMLID_1098_" class="st102" d="M266.8 307.9H78.4v34.3H434v-18.9c-66.8 2.9-122.1-4-167.2-15.4z"/><path id="XMLID_1097_" d="M312.1 498.3H200.3c-8.8 0-13.2-10.7-7-16.9l62.9-62.9 62.9 62.9c6.2 6.3 1.8 16.9-7 16.9z" style="fill:#716ea8"/><path id="XMLID_1096_" class="st4" d="M312.1 498.3h-72.5c-8.8 0-13.2-10.7-7-16.9l43.3-43.3 43.3 43.3c6.1 6.3 1.7 16.9-7.1 16.9z"/><g id="XMLID_1090_"><path id="XMLID_1095_" class="st31" d="M306.1 68.1 285.2 89 264 110.2c-5.3 5.3-13.9 5.3-19.3 0l-42.1-42.1c-6.5-6.5-9.8-15.1-9.8-23.7s3.3-17.2 9.8-23.7c5.3-5.3 12.1-8.5 19-9.5 1.6-.2 3.1-.3 4.7-.3 8.6 0 17.2 3.3 23.7 9.8 2.4 2.4 6.2 2.4 8.5 0 6.5-6.5 15.1-9.8 23.7-9.8s17.2 3.3 23.7 9.8c13.3 13 13.3 34.3.2 47.4z"/><path id="XMLID_1094_" class="st90" d="M306.1 68.1 285.2 89 264 110.2c-5.3 5.3-13.9 5.3-19.3 0l-42.1-42.1c-6.5-6.5-9.8-15.1-9.8-23.7s3.3-17.2 9.8-23.7c5.3-5.3 12.1-8.5 19-9.5.1-.1 27.5 53.2 84.5 56.9z"/><path id="XMLID_1093_" class="st32" d="M285.2 88.9 264 110.2c-5.3 5.3-13.9 5.3-19.3 0l-42.1-42.1c-6.5-6.5-9.8-15.1-9.8-23.7s3.3-17.2 9.8-23.7c5.3-5.3 12.1-8.5 19-9.5.1-.1-7.6 63 63.6 77.7z"/><ellipse id="XMLID_1092_" transform="rotate(-39.276 294.965 26.95)" class="st33" cx="295" cy="27" rx="8.8" ry="11"/><ellipse id="XMLID_1091_" transform="rotate(-39.276 306.052 41.482)" class="st33" cx="306.1" cy="41.5" rx="3.7" ry="4.6"/></g><g id="XMLID_1083_"><path id="XMLID_1089_" class="st31" d="M354.4 95.5 346 104l-8.6 8.6c-2.1 2.1-5.6 2.1-7.8 0l-17-17c-2.6-2.6-4-6.1-4-9.6s1.3-6.9 4-9.6c2.2-2.2 4.9-3.4 7.7-3.8.6-.1 1.3-.1 1.9-.1 3.5 0 6.9 1.3 9.6 4 1 1 2.5 1 3.5 0 2.6-2.6 6.1-4 9.6-4s6.9 1.3 9.6 4c5.2 5.2 5.2 13.7-.1 19z"/><path id="XMLID_1087_" class="st90" d="M354.4 95.5 346 104l-8.6 8.6c-2.1 2.1-5.6 2.1-7.8 0l-17-17c-2.6-2.6-4-6.1-4-9.6s1.3-6.9 4-9.6c2.2-2.2 4.9-3.4 7.7-3.8 0-.1 11.1 21.4 34.1 22.9z"/><path id="XMLID_1086_" class="st32" d="m346 104-8.6 8.6c-2.1 2.1-5.6 2.1-7.8 0l-17-17c-2.6-2.6-4-6.1-4-9.6s1.3-6.9 4-9.6c2.2-2.2 4.9-3.4 7.7-3.8 0-.1-3.1 25.4 25.7 31.4z"/><ellipse id="XMLID_1085_" transform="rotate(-39.276 349.935 78.903)" class="st33" cx="349.9" cy="78.9" rx="3.6" ry="4.5"/><ellipse id="XMLID_1084_" transform="rotate(-39.276 354.416 84.775)" class="st33" cx="354.4" cy="84.8" rx="1.5" ry="1.9"/></g><g id="XMLID_1077_"><path id="XMLID_1082_" class="st31" d="m198.2 95.5-8.4 8.4-8.6 8.6c-2.1 2.1-5.6 2.1-7.8 0l-17-17c-2.6-2.6-4-6.1-4-9.6s1.3-6.9 4-9.6c2.2-2.2 4.9-3.4 7.7-3.8.6-.1 1.3-.1 1.9-.1 3.5 0 6.9 1.3 9.6 4 1 1 2.5 1 3.5 0 2.6-2.6 6.1-4 9.6-4s6.9 1.3 9.6 4c5.2 5.3 5.2 13.8-.1 19.1z"/><path id="XMLID_1081_" class="st90" d="m198.2 95.5-8.4 8.4-8.6 8.6c-2.1 2.1-5.6 2.1-7.8 0l-17-17c-2.6-2.6-4-6.1-4-9.6s1.3-6.9 4-9.6c2.2-2.2 4.9-3.4 7.7-3.8 0 0 11.1 21.5 34.1 23z"/><path id="XMLID_1080_" class="st32" d="m189.8 104-8.6 8.6c-2.1 2.1-5.6 2.1-7.8 0l-17-17c-2.6-2.6-4-6.1-4-9.6s1.3-6.9 4-9.6c2.2-2.2 4.9-3.4 7.7-3.8 0-.1-3.1 25.4 25.7 31.4z"/><ellipse id="XMLID_1079_" transform="rotate(-39.276 193.718 78.907)" class="st33" cx="193.7" cy="78.9" rx="3.6" ry="4.5"/><ellipse id="XMLID_1078_" transform="rotate(-39.276 198.199 84.779)" class="st33" cx="198.2" cy="84.8" rx="1.5" ry="1.9"/></g><path id="XMLID_1076_" class="st4" d="M467.1 357c0 3.8-1.4 7.3-3.7 10-.3.3-.6.6-.9 1-2.8 2.8-6.7 4.5-10.9 4.5H58.3c-4.7 0-9-2.1-11.8-5.5a15.4 15.4 0 0 1-3.7-10c0-4.3 1.7-8.1 4.5-10.9 2.8-2.8 6.7-4.5 10.9-4.5h393.3c8.6-.1 15.6 6.8 15.6 15.4z"/><path id="XMLID_1075_" d="M463.4 367c-.3.3-.6.6-.9 1-2.8 2.8-6.7 4.5-10.9 4.5H58.3c-4.7 0-9-2.1-11.8-5.5.3-.3.6-.6.9-1 2.8-2.8 6.7-4.5 10.9-4.5h393.3c4.7 0 9 2.1 11.8 5.5z" style="fill:#7471ab"/><path id="XMLID_1074_" class="st105" d="M373.7 421.3c-.2.3-.4.5-.6.8.1-.3.3-.6.6-.8z"/><path id="XMLID_1073_" class="st105" d="M385.1 402.1c-.1.4-.3.7-.5 1.1.2-.4.4-.7.5-1.1z"/><path id="XMLID_1072_" class="st105" d="m378.2 415.1-.6.9.6-.9z"/><path id="XMLID_1071_" class="st105" d="M375.7 418.6s0 .1 0 0c0 .1 0 0 0 0z"/><path id="XMLID_1069_" class="st105" d="M371.4 423.9c-.2.2-.4.5-.7.7.3-.2.5-.4.7-.7z"/><path id="XMLID_1068_" class="st105" d="M386.5 398.7c-.1.2-.1.4-.2.6 0-.2.1-.4.2-.6z"/><path id="XMLID_1067_" class="st105" d="M388.7 391.3c-.1.4-.2.8-.3 1.1.1-.3.2-.7.3-1.1z"/><path id="XMLID_1066_" class="st105" d="m380.1 412.1-.6.9.6-.9z"/><path id="XMLID_1065_" class="st105" d="M383.7 405.3c-.2.3-.3.7-.5 1 .2-.3.4-.7.5-1z"/><path id="XMLID_1064_" class="st105" d="M381.8 409.1c-.1.1-.1.2-.2.3.1-.1.2-.2.2-.3z"/><path id="XMLID_1063_" class="st105" d="M389.4 388.3c.5-2.2.8-4.5 1.1-6.8-.3 2.2-.6 4.4-1 6.6 0 0-.1.1-.1.2z"/><path id="XMLID_1062_" class="st105" d="M387.8 394.7c-.1.4-.2.8-.3 1.1.1-.3.2-.7.3-1.1z"/><path id="XMLID_1061_" class="st106" d="M384.7 403.2c-.3.7-.6 1.4-1 2.1.4-.7.7-1.4 1-2.1z"/><path id="XMLID_1060_" class="st106" d="M388.4 392.5c-.2.8-.4 1.5-.6 2.2.2-.7.4-1.5.6-2.2z"/><path id="XMLID_1059_" class="st106" d="M389.4 388.3c-.2 1-.5 2-.7 3.1.3-1.1.5-2.1.7-3.1z"/><path id="XMLID_1058_" class="st106" d="M386.3 399.3c-.4.9-.7 1.9-1.1 2.8.3-.9.7-1.9 1.1-2.8z"/><path id="XMLID_1057_" class="st106" d="M387.4 395.8z"/><path id="XMLID_1056_" class="st106" d="M375.7 418.7c-.7.9-1.3 1.7-2 2.6.6-.9 1.3-1.7 2-2.6z"/><path id="XMLID_1055_" class="st106" d="M373 422c-.5.6-1.1 1.2-1.6 1.9.5-.6 1.1-1.2 1.6-1.9z"/><path id="XMLID_1054_" class="st106" d="M383.2 406.3c-.5.9-.9 1.9-1.4 2.8.5-.9 1-1.9 1.4-2.8z"/><path id="XMLID_1053_" class="st106" d="M377.6 415.9c-.6.9-1.3 1.8-1.9 2.7.7-.9 1.3-1.8 1.9-2.7z"/><path id="XMLID_1052_" class="st106" d="M368.4 427.1c.8-.8 1.5-1.6 2.3-2.4-.7.8-1.5 1.6-2.3 2.4z"/><path id="XMLID_1051_" class="st106" d="M379.5 413c-.4.7-.9 1.4-1.3 2 .5-.6.9-1.3 1.3-2z"/><path id="XMLID_1050_" class="st106" d="M381.6 409.4c-.5.9-1 1.8-1.6 2.7.6-.9 1.1-1.8 1.6-2.7z"/><path id="XMLID_1049_" class="st106" d="M371.4 423.9c.5-.6 1.1-1.2 1.6-1.9.2-.3.4-.5.6-.8.7-.9 1.4-1.7 2-2.6v-.1c.7-.9 1.3-1.8 1.9-2.7l.6-.9c.4-.7.9-1.3 1.3-2l.6-.9c.5-.9 1.1-1.8 1.6-2.7.1-.1.1-.2.2-.3.5-.9 1-1.9 1.4-2.8.2-.3.3-.7.5-1 .3-.7.6-1.4 1-2.1.2-.4.3-.7.5-1.1.4-.9.8-1.9 1.1-2.8.1-.2.1-.4.2-.6.3-.9.7-1.9 1-2.9.1-.4.2-.8.3-1.1.2-.7.4-1.5.6-2.2.1-.4.2-.8.3-1.1.3-1 .5-2 .7-3.1 0-.1 0-.2.1-.3h-202c7.2 35.2 38.3 61.7 75.7 61.7h50.7c21.3 0 40.6-8.6 54.6-22.6.8-.8 1.5-1.6 2.3-2.4.2-.2.4-.4.6-.7z"/><path id="XMLID_1048_" class="st105" d="M391.1 372.4c0 3-.2 6-.5 9 .3-2.9.5-5.9.5-9z"/><path id="XMLID_1047_" class="st105" d="M185.9 372.4h-67c0 42.7 34.6 77.2 77.2 77.2h67c-28.4 0-53.1-15.3-66.6-38-6.2-10.4 1.4-23.6 13.6-23.6h179.3c.4-2.2.8-4.4 1-6.6.3-3 .5-5.9.5-9h-205z"/><ellipse id="XMLID_1046_" transform="rotate(-7.892 339.322 412.067)" class="st33" cx="339.3" cy="412.1" rx="26.1" ry="21"/><ellipse id="XMLID_1045_" transform="rotate(-7.892 296.246 416.56)" class="st33" cx="296.2" cy="416.6" rx="10.9" ry="8.8"/><path id="XMLID_1044_" class="st103" d="M434 221.9v10.7c0 8.2-3.3 15.6-8.7 21-5.4 5.4-12.8 8.7-21 8.7-16.4 0-29.6-13.3-29.6-29.6 0 16.4-13.3 29.6-29.6 29.6-16.4 0-29.6-13.3-29.6-29.6 0 8.2-3.3 15.6-8.7 21-5.4 5.4-12.8 8.7-20.9 8.7-16.4 0-29.6-13.3-29.6-29.6 0 8.2-3.3 15.6-8.7 21-5.4 5.4-12.8 8.7-21 8.7-16.4 0-29.6-13.3-29.6-29.6 0 16.4-13.3 29.6-29.6 29.6s-29.6-13.3-29.6-29.6c0 8.2-3.3 15.6-8.7 21-5.4 5.4-12.8 8.7-20.9 8.7-16.4 0-29.6-13.3-29.6-29.6v-10.7c0-1.2.1-2.4.3-3.5 1.7-10 10.3-17.6 20.8-17.6h313.4c5.8 0 11.1 2.4 14.9 6.2 3 3 5.2 7 5.9 11.4 0 .8.1 2 .1 3.1z"/><path id="XMLID_1035_" d="M456.5 353.8c-.8-4.4-3.2-8.4-6.6-11.4-4.3-3.8-10.2-6.2-16.7-6.2H82c-11.7 0-21.4 7.6-23.3 17.6-.2 1.1-.3 2.3-.3 3.5V368c0 16.4 14.9 29.6 33.2 29.6 9.2 0 17.5-3.3 23.5-8.7 6-5.4 9.7-12.8 9.7-21 0 16.4 14.9 29.6 33.2 29.6 18.4 0 33.2-13.3 33.2-29.6 0 16.4 14.9 29.6 33.2 29.6 9.2 0 17.5-3.3 23.5-8.7 6-5.4 9.7-12.8 9.7-21 0 16.4 14.9 29.6 33.2 29.6 9.2 0 17.5-3.3 23.5-8.7 6-5.4 9.7-12.8 9.7-21 0 16.4 14.9 29.6 33.2 29.6 18.4 0 33.2-13.3 33.2-29.6 0 16.4 14.9 29.6 33.2 29.6 9.2 0 17.5-3.3 23.5-8.7 6-5.4 9.7-12.8 9.7-21v-10.7c.1-.8-.1-2-.3-3.1zM90.1 378.3c-6.3 0-11.4-5.1-11.4-11.4 0-6.3 5.1-11.4 11.4-11.4s11.4 5.1 11.4 11.4c-.1 6.3-5.2 11.4-11.4 11.4zm67.3 0c-6.3 0-11.4-5.1-11.4-11.4 0-6.3 5.1-11.4 11.4-11.4 6.3 0 11.4 5.1 11.4 11.4-.1 6.3-5.1 11.4-11.4 11.4zm66.9 0c-6.3 0-11.4-5.1-11.4-11.4 0-6.3 5.1-11.4 11.4-11.4 6.3 0 11.4 5.1 11.4 11.4 0 6.3-5.1 11.4-11.4 11.4zm67.1 0c-6.3 0-11.4-5.1-11.4-11.4 0-6.3 5.1-11.4 11.4-11.4 6.3 0 11.4 5.1 11.4 11.4-.1 6.3-5.2 11.4-11.4 11.4zm66.4 0c-6.3 0-11.4-5.1-11.4-11.4 0-6.3 5.1-11.4 11.4-11.4 6.3 0 11.4 5.1 11.4 11.4-.1 6.3-5.1 11.4-11.4 11.4zm66.6 0c-6.3 0-11.4-5.1-11.4-11.4 0-6.3 5.1-11.4 11.4-11.4 6.3 0 11.4 5.1 11.4 11.4-.1 6.3-5.2 11.4-11.4 11.4z" style="fill:#fff"/><path id="XMLID_1034_" class="st31" d="M433.7 218.5c-.9 6.5-3.9 12.4-8.4 16.8-5.4 5.4-12.8 8.7-21 8.7-16.4 0-29.6-13.3-29.6-29.6 0 16.4-13.3 29.6-29.6 29.6-16.4 0-29.6-13.3-29.6-29.6 0 8.2-3.3 15.6-8.7 21-5.4 5.4-12.8 8.7-20.9 8.7-16.4 0-29.6-13.3-29.6-29.6 0 8.2-3.3 15.6-8.7 21-5.4 5.4-12.8 8.7-21 8.7-16.4 0-29.6-13.3-29.6-29.6 0 16.4-13.3 29.6-29.6 29.6s-29.6-13.3-29.6-29.6c0 8.2-3.3 15.6-8.7 21-5.4 5.4-12.8 8.7-20.9 8.7-15 0-27.3-11.1-29.3-25.5 1.7-10 10.3-17.6 20.8-17.6h313.4c5.8 0 11.1 2.4 14.9 6.2 2.8 2.7 4.9 6.6 5.7 11.1z"/><path id="XMLID_1033_" class="st107" d="m221.8 294.1-3.2 3.2-6 6c-1.5 1.5-3.9 1.5-5.4 0l-11.9-11.9c-1.8-1.8-2.8-4.3-2.8-6.7 0-.8.1-1.7.3-2.5-7.5-3.5-14.6-7-21.1-10.5H78.4v36.2h188.4c-16.3-4.1-31.3-8.8-45-13.8z"/><path id="XMLID_1032_" class="st17" d="M224.4 291.4c3.7-3.7 3.7-9.7 0-13.4-1.8-1.8-4.3-2.8-6.7-2.8-2.4 0-4.8.9-6.7 2.8-.7.7-1.7.7-2.4 0-1.8-1.8-4.3-2.8-6.7-2.8-.4 0-.9 0-1.3.1-2 .3-3.8 1.2-5.4 2.7-1.2 1.2-2 2.6-2.4 4.2 8.9 4.1 18.5 8.1 28.9 11.9l2.7-2.7z"/><path id="XMLID_1031_" class="st108" d="m195.3 291.4 11.9 11.9c1.5 1.5 3.9 1.5 5.4 0l6-6 3.2-3.2c-10.4-3.8-20-7.8-28.9-11.9-.2.8-.3 1.7-.3 2.5-.1 2.5.9 4.9 2.7 6.7z"/><path id="XMLID_1030_" class="st17" d="M271.5 278.1c-1.8-1.8-4.3-2.8-6.7-2.8s-4.8.9-6.7 2.8c-.7.7-1.7.7-2.4 0-1.8-1.8-4.3-2.8-6.7-2.8-.4 0-.9 0-1.3.1-2 .3-3.8 1.2-5.4 2.7-1.8 1.8-2.8 4.3-2.8 6.7s.9 4.8 2.8 6.7l11.9 11.9c1.5 1.5 3.9 1.5 5.4 0l6-6 5.9-5.9c3.6-3.7 3.6-9.7 0-13.4z"/><path id="XMLID_1029_" class="st17" d="M317.4 278.1c-1.8-1.8-4.3-2.8-6.7-2.8-2.4 0-4.8.9-6.7 2.8-.7.7-1.7.7-2.4 0-1.8-1.8-4.3-2.8-6.7-2.8-.4 0-.9 0-1.3.1-2 .3-3.8 1.2-5.4 2.7-1.8 1.8-2.8 4.3-2.8 6.7s.9 4.8 2.8 6.7l11.9 11.9c1.5 1.5 3.9 1.5 5.4 0l6-6 5.9-5.9c3.7-3.7 3.7-9.7 0-13.4z"/><path id="XMLID_1028_" class="st17" d="M364.9 278.1c-1.8-1.8-4.3-2.8-6.7-2.8s-4.8.9-6.7 2.8c-.7.7-1.7.7-2.4 0-1.8-1.8-4.3-2.8-6.7-2.8-.4 0-.9 0-1.3.1-2 .3-3.8 1.2-5.4 2.7-1.8 1.8-2.8 4.3-2.8 6.7s.9 4.8 2.8 6.7l11.9 11.9c1.5 1.5 3.9 1.5 5.4 0l6-6 5.9-5.9c3.7-3.7 3.7-9.7 0-13.4z"/><path id="XMLID_1027_" class="st17" d="M410.2 278.1c-1.8-1.8-4.3-2.8-6.7-2.8-2.4 0-4.8.9-6.7 2.8-.7.7-1.7.7-2.4 0-1.8-1.8-4.3-2.8-6.7-2.8-.4 0-.9 0-1.3.1-2 .3-3.8 1.2-5.4 2.7-1.8 1.8-2.8 4.3-2.8 6.7s.9 4.8 2.8 6.7l11.9 11.9c1.5 1.5 3.9 1.5 5.4 0l6-6 5.9-5.9c3.7-3.7 3.7-9.7 0-13.4z"/><path id="XMLID_1026_" class="st108" d="M131 278.1c-1.8-1.8-4.3-2.8-6.7-2.8s-4.8.9-6.7 2.8c-.7.7-1.7.7-2.4 0-1.8-1.8-4.3-2.8-6.7-2.8-.4 0-.9 0-1.3.1-2 .3-3.8 1.2-5.4 2.7-1.8 1.8-2.8 4.3-2.8 6.7s.9 4.8 2.8 6.7l11.9 11.9c1.5 1.5 3.9 1.5 5.4 0l6-6 5.9-5.9c3.7-3.7 3.7-9.7 0-13.4z"/><path id="XMLID_1025_" class="st108" d="M177 278.1c-1.8-1.8-4.3-2.8-6.7-2.8-2.4 0-4.8.9-6.7 2.8-.7.7-1.7.7-2.4 0-1.8-1.8-4.3-2.8-6.7-2.8-.4 0-.9 0-1.3.1-2 .3-3.8 1.2-5.4 2.7-1.8 1.8-2.8 4.3-2.8 6.7s.9 4.8 2.8 6.7l11.9 11.9c1.5 1.5 3.9 1.5 5.4 0l6-6 5.9-5.9c3.7-3.7 3.7-9.7 0-13.4z"/><path id="XMLID_1022_" class="st107" d="M234.3 180c-5.4 0-9.8-4.4-9.8-9.8v-.5c-6-2.4-11.5-4.9-16.6-7.5 2.5 1.8 4.1 4.7 4.1 7.9 0 5.4-4.4 9.8-9.8 9.8s-9.8-4.4-9.8-9.8 4.4-9.8 9.8-9.8c1 0 2 .2 2.9.4-1.5-.7-2.9-1.5-4.3-2.2h-59.9v23.2h121c-6.9-1.7-13.5-3.7-19.7-5.7-1.9 2.5-4.7 4-7.9 4zm-64.3 0c-5.4 0-9.8-4.4-9.8-9.8s4.4-9.8 9.8-9.8 9.8 4.4 9.8 9.8c0 5.5-4.4 9.8-9.8 9.8z"/><circle id="XMLID_1021_" class="st81" cx="170" cy="170.2" r="9.8"/><path id="XMLID_1020_" class="st2" d="M205 160.9c.9.5 1.9 1 2.9 1.4-.9-.6-1.8-1.1-2.9-1.4z"/><path id="XMLID_1019_" class="st81" d="M192.3 170.2c0 5.4 4.4 9.8 9.8 9.8s9.8-4.4 9.8-9.8c0-3.3-1.6-6.2-4.1-7.9-1-.5-1.9-1-2.9-1.4-.9-.3-1.9-.4-2.9-.4-5.3-.1-9.7 4.3-9.7 9.7z"/><path id="XMLID_1018_" class="st2" d="M244.1 170.2c0-5.4-4.4-9.8-9.8-9.8-5.3 0-9.5 4.1-9.8 9.3 5.5 2.2 11.4 4.4 17.6 6.4 1.3-1.6 2-3.6 2-5.9z"/><path id="XMLID_1017_" class="st81" d="M234.3 180c3.2 0 6-1.5 7.8-3.9-6.2-2-12.1-4.2-17.6-6.4v.5c0 5.5 4.4 9.8 9.8 9.8z"/><circle id="XMLID_1016_" class="st2" cx="268.4" cy="170.2" r="9.8"/><circle id="XMLID_1015_" class="st2" cx="301.3" cy="170.2" r="9.8"/><circle id="XMLID_1014_" class="st2" cx="336" cy="170.2" r="9.8"/><ellipse id="XMLID_1013_" transform="rotate(-39.276 412.99 218.972)" class="st109" cx="413" cy="219" rx="7.4" ry="9.2"/><ellipse id="XMLID_1012_" transform="rotate(-39.276 350.315 126.605)" class="st109" cx="350.3" cy="126.6" rx="7.4" ry="9.2"/></g></g></svg>