<svg xmlns="http://www.w3.org/2000/svg" viewBox="0 0 512 512" style="enable-background:new 0 0 512 512" xml:space="preserve"><style>.st25{fill:#c56673}.st30{fill:#fff}.st34{fill:#c34261}.st35{fill:#af3952}.st37{fill:#c63c52}.st209{fill:#f0c9f6}.st223{fill:#dfbce6}.st224{fill:#c3a56d}.st225{fill:#ae9466}.st226{fill:#d5889a}</style><g id="BULINE"><circle id="XMLID_1274_" cx="256" cy="256" r="256" style="fill:#eec0c5"/></g><g id="Icons"><g id="XMLID_1895_"><path id="XMLID_1951_" class="st25" d="m90.1 124.4-1.1 2.2-2.2-1.1c-12-6.1-26.6-1.3-32.7 10.7l-1.4 2.7c-6.1 12-1.3 26.6 10.7 32.7l2.2 1.1 46 23.4 23.4-46 1.1-2.2c6.1-12 1.3-26.6-10.7-32.7l-2.7-1.4c-11.8-6.1-26.5-1.3-32.6 10.6z"/><path id="XMLID_1950_" class="st25" d="m61.5 233.9-.1 1.1-1.1-.1c-6-.4-11.1 4.1-11.5 10.1l-.1 1.3c-.4 6 4.1 11.1 10.1 11.5l1.1.1 23 1.6 1.6-23 .1-1.1c.4-6-4.1-11.1-10.1-11.5l-1.3-.1c-6.1-.4-11.3 4.1-11.7 10.1z"/><path id="XMLID_1949_" class="st25" d="m99.7 278.4-1 1.7-1.7-1c-9.3-5.3-21.2-2.1-26.5 7.2l-1.2 2.1c-5.3 9.3-2.1 21.2 7.2 26.5l1.7 1 35.8 20.5 20.5-35.8 1-1.7c5.3-9.3 2.1-21.2-7.2-26.5l-2.1-1.2c-9.4-5.3-21.2-2.1-26.5 7.2z"/><path id="XMLID_1948_" class="st25" d="m421.3 124.4 1.1 2.2 2.2-1.1c12-6.1 26.6-1.3 32.7 10.7l1.4 2.7c6.1 12 1.3 26.6-10.7 32.7l-2.2 1.1-46 23.4-23.4-46-1.1-2.2c-6.1-12-1.3-26.6 10.7-32.7l2.7-1.4c11.9-6.1 26.6-1.3 32.6 10.6z"/><path id="XMLID_1947_" class="st25" d="m450 233.9.1 1.1 1.1-.1c6-.4 11.1 4.1 11.5 10.1l.1 1.3c.4 6-4.1 11.1-10.1 11.5l-1.1.1-23 1.6-1.6-23-.1-1.1c-.4-6 4.1-11.1 10.1-11.5l1.3-.1c6.1-.4 11.3 4.1 11.7 10.1z"/><path id="XMLID_1946_" class="st25" d="m411.8 278.4 1 1.7 1.7-1c9.3-5.3 21.2-2.1 26.5 7.2l1.2 2.1c5.3 9.3 2.1 21.2-7.2 26.5l-1.7 1-35.8 20.5-20.5-35.8-1-1.7c-5.3-9.3-2.1-21.2 7.2-26.5l2.1-1.2c9.4-5.3 21.2-2.1 26.5 7.2z"/><g id="XMLID_1896_"><path id="XMLID_1945_" class="st25" d="m326.3 63.7-2.4.8-.9-2.5c-4.3-13.6-18.8-21.1-32.4-16.8l-3 1C274 50.5 266.5 65 270.8 78.6l.8 2.4 16.6 52.3 52.3-16.6 2.4-.8c13.6-4.3 21.1-18.8 16.8-32.4l-1-3c-4.3-13.6-18.8-21.1-32.4-16.8z"/><path id="XMLID_1944_" class="st25" d="m184.1 69.6-.2 2.6-2.6-.2c-14.2-1.2-26.7 9.4-27.9 23.6l-.3 3.2c-1.2 14.2 9.4 26.7 23.6 27.9l2.6.2 54.7 4.5 4.5-54.7.2-2.6c1.2-14.2-9.4-26.7-23.6-27.9l-3.2-.3c-14.2-1-26.6 9.5-27.8 23.7z"/><g id="XMLID_1918_"><path id="XMLID_1943_" class="st223" d="M357 322v73.9c0 6.8-5.5 12.2-12.2 12.2h-182c-6.8 0-12.2-5.5-12.2-12.2V322H357z"/><path id="XMLID_1942_" class="st209" d="M357 322v73.9c0 6.8-5.5 12.2-12.2 12.2h-149c-6.8 0-12.2-5.5-12.2-12.2V322H357z"/><path id="XMLID_1941_" class="st223" d="M171.2 236h165.1v86.2H171.2z"/><path id="XMLID_1940_" class="st209" d="M201.8 236h134.5v86.2H201.8z"/><path id="XMLID_1939_" class="st223" d="M191.4 149.9h123.8v86.2H191.4z"/><path id="XMLID_1938_" class="st209" d="M217.7 149.9h97.5v86.2h-97.5z"/><path id="XMLID_1937_" class="st30" d="M316.9 130.6H189.7c-4.4 0-7.9 3.5-7.9 7.9v34.3c0 5.3 4.3 9.6 9.6 9.6v-32.5c0 11.4 9.2 20.6 20.6 20.6 11.4 0 20.6-9.2 20.6-20.6 0 11.4 9.2 20.6 20.6 20.6 11.4 0 20.6-9.2 20.6-20.6 0 11.4 9.2 20.6 20.6 20.6 11.4 0 20.6-9.2 20.6-20.6v32.5c5.3 0 9.6-4.3 9.6-9.6v-34.3c.2-4.4-3.3-7.9-7.7-7.9z"/><path id="XMLID_1936_" class="st30" d="M338.4 217.2h-169c-5.8 0-10.5 3.5-10.5 7.9v34.3c0 5.3 5.7 9.6 12.8 9.6v-28.7c1.9 9.4 10.3 16.4 20.2 16.4 11.3 0 20.4-9 20.6-20.2.2 11.2 9.4 20.2 20.6 20.2 11.3 0 20.4-9 20.6-20.2.2 11.2 9.4 20.2 20.6 20.2 11.3 0 20.4-9 20.6-20.2.2 11.2 9.4 20.2 20.6 20.2 10.5 0 19.1-7.8 20.5-17.9V269c7 0 12.8-4.3 12.8-9.6v-34.3c.1-4.4-4.6-7.9-10.4-7.9z"/><path id="XMLID_1935_" class="st30" d="M359.8 303.3H151.1c-7.2 0-13 3.5-13 7.9v34.3c0 5.3 7.1 9.6 15.8 9.6v-21.9c3.7 5.7 10.1 9.5 17.3 9.5 11.2 0 20.3-8.9 20.6-20.1.3 11.1 9.4 20.1 20.6 20.1 11.2 0 20.3-8.9 20.6-20.1.3 11.1 9.4 20.1 20.6 20.1 11.2 0 20.3-8.9 20.6-20.1.3 11.1 9.4 20.1 20.6 20.1 11.2 0 20.3-8.9 20.6-20.1.3 11.1 9.4 20.1 20.6 20.1 11.2 0 20.3-8.9 20.6-20.1v32.5c8.7 0 15.8-4.3 15.8-9.6v-34.3c.3-4.4-5.5-7.9-12.6-7.9z"/><path id="XMLID_1934_" class="st35" d="M228.6 217.2h-23.5c0-6.5 5.3-11.7 11.7-11.7.9 0 1.8.1 2.6.3 5.3 1.1 9.2 5.8 9.2 11.4z"/><path id="XMLID_1933_" class="st37" d="M228.6 217.2h-18.3c0-5.6 3.9-10.3 9.1-11.4 5.3 1.1 9.2 5.8 9.2 11.4z"/><path id="XMLID_1932_" class="st35" d="M262.3 217.2h-23.5c0-6.5 5.3-11.7 11.7-11.7.9 0 1.8.1 2.6.3 5.3 1.1 9.2 5.8 9.2 11.4z"/><path id="XMLID_1931_" class="st37" d="M262.3 217.2H244c0-5.6 3.9-10.3 9.1-11.4 5.3 1.1 9.2 5.8 9.2 11.4z"/><path id="XMLID_1930_" class="st35" d="M296.5 217.2H273c0-6.5 5.3-11.7 11.7-11.7.9 0 1.8.1 2.6.3 5.3 1.1 9.2 5.8 9.2 11.4z"/><path id="XMLID_1929_" class="st37" d="M296.5 217.2h-18.3c0-5.6 3.9-10.3 9.1-11.4 5.3 1.1 9.2 5.8 9.2 11.4z"/><path id="XMLID_1928_" class="st35" d="M198.7 303.3h-23.5c0-6.5 5.3-11.7 11.7-11.7.9 0 1.8.1 2.6.3 5.3 1.1 9.2 5.8 9.2 11.4z"/><path id="XMLID_1927_" class="st37" d="M198.7 303.3h-18.3c0-5.6 3.9-10.3 9.1-11.4 5.3 1.1 9.2 5.8 9.2 11.4z"/><path id="XMLID_1926_" class="st35" d="M232.4 303.3h-23.5c0-6.5 5.3-11.7 11.7-11.7.9 0 1.8.1 2.6.3 5.3 1.1 9.2 5.8 9.2 11.4z"/><path id="XMLID_1925_" class="st37" d="M232.4 303.3h-18.3c0-5.6 3.9-10.3 9.1-11.4 5.3 1.1 9.2 5.8 9.2 11.4z"/><path id="XMLID_1924_" class="st35" d="M266.6 303.3h-23.5c0-6.5 5.3-11.7 11.7-11.7.9 0 1.8.1 2.6.3 5.3 1.1 9.2 5.8 9.2 11.4z"/><path id="XMLID_1923_" class="st37" d="M266.6 303.3h-18.3c0-5.6 3.9-10.3 9.1-11.4 5.3 1.1 9.2 5.8 9.2 11.4z"/><path id="XMLID_1922_" class="st35" d="M299.3 303.3h-23.5c0-6.5 5.3-11.7 11.7-11.7.9 0 1.8.1 2.6.3 5.3 1.1 9.2 5.8 9.2 11.4z"/><path id="XMLID_1921_" class="st37" d="M299.3 303.3H281c0-5.6 3.9-10.3 9.1-11.4 5.3 1.1 9.2 5.8 9.2 11.4z"/><path id="XMLID_1920_" class="st35" d="M333 303.3h-23.5c0-6.5 5.3-11.7 11.7-11.7.9 0 1.8.1 2.6.3 5.3 1.1 9.2 5.8 9.2 11.4z"/><path id="XMLID_1919_" class="st37" d="M333 303.3h-18.3c0-5.6 3.9-10.3 9.1-11.4 5.3 1.1 9.2 5.8 9.2 11.4z"/></g><path id="XMLID_1917_" class="st224" d="M300.3 130.6h-90.5c0-8.4 6.8-15.2 15.2-15.2h60.2c8.3 0 15.1 6.8 15.1 15.2z"/><path id="XMLID_1916_" d="M244.5 117.2h-1.8V82.1h.3c2.1 0 3.8-1.7 3.8-3.8v-1.6h.1c.5 0 .9-.4.9-.9v-.6h-4.6v1.5V75.3h4.6c.2 0 .4-.2.4-.4L246.9 62v-4.6c0-6.1-1.4-8.4-2.4-9.3-.3-.2-.5-.4-.7-.4-.2-.1-.4-.1-.4-.1l-3.6-.9c-.3-2.2-2.6-3.4-3-3.7h-.8c3.4-.8 6-3.9 6.1-7.6 1 0 1.8-.8 1.8-1.8s-.8-1.8-1.8-1.8V30l1.7-6.9c.1-.3.1-.6.1-.9-.6-4.6-9.7-4.4-11.2-4.4h-.5c-13 .1-11.4 4.9-11.4 4.9l2.1 7.2v1.8c-1 0-1.8.8-1.8 1.8s.8 1.8 1.8 1.8c.1 3.7 2.6 6.7 6.1 7.6h-1.2s-2.8 1.2-3.1 3.7l-3.7 1s-.1 0-.4.1c-.2.1-.4.2-.7.4-1 .9-2.4 3.2-2.4 9.3V62L216 74.9c0 .2.2.4.4.4h4.6V76.7v-1.5h-4.6v.6c0 .5.4.9.9.9v1.6c0 2.1 1.7 3.8 3.8 3.8h.5v35.1h-1.7c-2.3 0-4.1 1.8-4.1 4.1H228c1.5 0 2.7-1.2 2.7-2.7v-34h3V118.7c0 1.5 1.2 2.7 2.7 2.7h12.3c0-2.3-1.9-4.2-4.2-4.2z" style="fill:#443d24"/><g id="XMLID_1914_"><path id="XMLID_1915_" class="st30" d="M294.3 118.9v-.3c-2.9-15-10.9-29.9-23.8-44.9-.1-.7-.1-1.4-.1-2.1l3.2-1.5c1.1-.5 1.7-1.6 1.7-2.7 0-.3 0-.6-.1-.9l-1-3.3c2-1 2.2-3 2.2-3 1.7.8 3.4.1 4.5-.6.6-.4.8-1.1.5-1.7l-9-18.1c.2-.8.4-1.7.4-2.6 0-2.9-1.3-5.6-3.3-7.5-.4-.4-.9-.7-1.3-1-.4-.2-.7-.5-1.1-.7.1-.4.1-.7.1-1.1 0-2.5-1.8-4.5-4.2-4.9-.3 0-.5-.1-.8-.1-2.7 0-5 2.2-5 5 0 .4 0 .8.1 1.1-.4.2-.8.4-1.1.7-.5.3-.9.7-1.3 1-2 1.9-3.3 4.5-3.3 7.5 0 .9.1 1.7.3 2.6L242.8 58c-.3.6-.1 1.3.5 1.7 1.1.6 2.8 1.4 4.5.6 0 0 .1 2 2.3 3.1l-.9 3.1c-.1.3-.1.6-.1.9 0 .6.2 1.1.5 1.6s.7.9 1.3 1.1l3.1 1.5c0 .7 0 1.4-.1 2.2-13.5 15-21.6 30-24.4 45-.2 1.1.5 2.1 1.6 2.3 11 2.1 22.1 3 33.4 2.8 9.4-.2 19-1.1 28.6-2.8.9-.2 1.6-1 1.6-1.9-.4-.1-.4-.2-.4-.3z"/></g><path id="XMLID_1913_" class="st37" d="m318.7 230.2-.7.1-.1-.7c-.8-3.8-4.5-6.3-8.4-5.5l-.9.2c-3.8.8-6.3 4.5-5.5 8.4l.1.7 3 14.8 14.8-3 .7-.1c3.8-.8 6.3-4.5 5.5-8.4l-.2-.9c-.7-3.9-4.4-6.4-8.3-5.6z"/><path id="XMLID_1912_" class="st37" d="m183.8 230.9-.1.7-.7-.1c-3.8-.3-7.2 2.5-7.6 6.4l-.1.9c-.3 3.8 2.5 7.2 6.4 7.6l.7.1 14.8 1.3 1.3-14.8.1-.7c.3-3.8-2.5-7.2-6.4-7.6l-.9-.1c-3.8-.4-7.2 2.4-7.5 6.3z"/><g id="XMLID_1909_"><path id="XMLID_1911_" class="st225" d="M381.6 406.8c0 5-2 9.6-5.3 12.9-3.3 3.3-7.9 5.3-12.9 5.3H142.2c-10.1 0-18.3-8.2-18.3-18.3h257.7z"/><path id="XMLID_1910_" class="st224" d="M381.6 406.8c0 5-2 9.6-5.3 12.9-3.3 3.3-7.9 5.3-12.9 5.3h-180c-10.1 0-18.3-8.2-18.3-18.3h216.5z"/></g><path id="XMLID_1908_" class="st226" d="M150.6 365.1H357v19.6H150.6z"/><g id="XMLID_1899_"><path id="XMLID_1907_" class="st34" d="m255.5 372.6-5.9 2.6-22.1 9.9c-2.8 1.2-5.9-.8-5.9-3.8v-17.5c0-3 3.1-5 5.9-3.8l28 12.6z"/><path id="XMLID_1906_" class="st35" d="m249.7 375.3-22.1 9.9c-2.8 1.2-5.9-.8-5.9-3.8v-12.2c0-3 3.1-5 5.9-3.8l22.1 9.9z"/><path id="XMLID_1905_" class="st34" d="M289.2 363.9v17.5c0 3-3.1 5-5.9 3.8l-23.4-10.5-4.6-2 28-12.5c2.8-1.3 5.9.7 5.9 3.7z"/><path id="XMLID_1904_" class="st35" d="M289.2 368v13.4c0 3-3.1 5-5.9 3.8l-23.4-10.5 23.4-10.5c2.8-1.3 5.9.8 5.9 3.8z"/><path id="XMLID_1903_" class="st35" d="M252.8 373.8 229 407.1l7.1-2.9 4.8 5.5z"/><path id="XMLID_1902_" class="st35" d="m259.2 373.8 23.8 33.3-7.1-2.9-4.8 5.5z"/><path id="XMLID_1901_" d="M263.2 372.6c0 3.6-2.5 6.6-5.8 7.4-.6.1-1.2.2-1.8.2-4.2 0-7.6-3.4-7.6-7.6s3.4-7.6 7.6-7.6c.6 0 1.2.1 1.8.2 3.3.8 5.8 3.8 5.8 7.4z" style="fill:#b33c56"/><path id="XMLID_1900_" class="st37" d="M263.2 372.6c0 3.6-2.5 6.6-5.8 7.4-3.3-.8-5.8-3.8-5.8-7.4s2.5-6.6 5.8-7.4c3.3.8 5.8 3.8 5.8 7.4z"/></g><path id="XMLID_1898_" class="st226" d="M191.4 183.8h123.8v19.6H191.4z"/><path id="XMLID_1897_" class="st225" d="M286.7 472.1h-16.4V425h-35.1v47.1h-16.4c-11 0-19.9 8.9-19.9 19.9h107.7c0-11-8.9-19.9-19.9-19.9z"/></g></g></g></svg>