<svg xmlns="http://www.w3.org/2000/svg" viewBox="0 0 235.02 197.58"><defs><style>.cls-2{fill:none;stroke:#000;stroke-miterlimit:10;stroke-width:8px}</style></defs><g id="Layer_2" data-name="Layer 2"><g id="Layer_1-2" data-name="Layer 1"><path style="fill:#e9d95c" d="m51.25 116.58 15.75 77h100.71l16.78-77-68.83-49.33-64.41 49.33z"/><circle cx="117.51" cy="193.58" r="3.96"/><path class="cls-2" d="m50.18 114.62 14.53 79h45.46M124.85 193.58H170.3l14.55-78.96"/><path d="M189.8 32.47a41 41 0 0 0-21 5.78 55.47 55.47 0 0 0-102.49 0A41.22 41.22 0 1 0 78.14 98.5a55.44 55.44 0 0 0 78.75 0 41.22 41.22 0 1 0 32.92-66z" style="fill:#ec8e5a;stroke:#000;stroke-miterlimit:10;stroke-width:8px"/><path d="M117.51 164a3.43 3.43 0 0 1-3.43-3.43V128a3.43 3.43 0 0 1 3.43-3.43 3.43 3.43 0 0 1 3.43 3.43v32.54a3.43 3.43 0 0 1-3.43 3.46z"/><rect x="90.5" y="130.13" width="6.85" height="28.34" rx="2.91" ry="2.91"/><rect x="137.67" y="130.13" width="6.85" height="28.34" rx="2.91" ry="2.91"/><path class="cls-2" d="M63.26 174.58h41.58M111.01 174.58h13"/><path style="fill:#121211;opacity:.2" d="M63.26 181.08h107.77v12.5H63.26z"/></g></g></svg>